<svg version="1.2" xmlns="http://www.w3.org/2000/svg" viewBox="0 0 319 480" width="37" height="56">
	<title>BRD_BG_logo_RGB</title>
	<style>
		.s0 { fill: #000000 } 
		.s1 { fill: #95161c } 
	</style>
	<g id="Layer 1">
		<g id="&lt;Group&gt;">
			<path id="&lt;Path&gt;" class="s0" d="m160.5 165q1.2 0.1 2.5 0.2 0.5 0 1.1 0.1 2.1 0.2 4.3 0.6c-7.9-37.5-39.2-65.6-79.3-65.6q-0.5 0-1.1 0.1c-13-0.1-26.4 3.1-39.3 10.2v36.5q0 0 0.1-0.1v0.3c10-10.9 24.4-17.7 40.3-17.7 14.3 0 27.3 5.4 37.1 14.4 6.4 6.1 11.4 13.7 14.4 22 4.6-0.8 9.4-1.2 14.3-1.2q2.8 0 5.6 0.2z"/>
			<path id="&lt;Path&gt;" class="s0" d="m230.4 384.4q0.6 0 1.1 0c13 0 26.4-3.1 39.3-10.2v-36.6q0 0.1-0.1 0.1v-0.2c-10 10.9-24.3 17.7-40.3 17.7-14.3 0-27.3-5.5-37-14.5-4.1-3.8-7.5-8.1-10.2-12.9-8.6 3.2-18 5-27.9 5 11.9 30.3 40.2 51.6 75.1 51.6z"/>
			<path id="&lt;Path&gt;" class="s1" d="m97.1 268q-1.2 0.1-2.4 0.2-2.8 0.1-5.6 0.2c-6.3 0-12.4-0.8-18.3-2.1v74.8 2.2 72l15.1 5.8 14.2 5.5c0-10.7 0-60.9 0-81.1 0-10.7 0-22 0-33q0 0 0.1 0v-44.9q-1 0.1-2 0.2-0.5 0.1-1.1 0.2z"/>
			<path id="&lt;Path&gt;" class="s0" d="m160.8 194.3q-0.8 0-1.5-0.1-0.8 0-1.5-0.1c-5.1-0.2-10.2 0.3-15.1 1.4q-1 4.6-2.6 8.9-0.6 1.3-1.2 2.7 0 0 0 0.1c-2.3 4.9-5.5 9.7-9.6 14.1-5.2 5.6-10.9 9.8-17 12.6q-0.8 0.4-1.6 0.8-0.4 0.2-0.9 0.3-4.1 1.7-8.5 2.7c-2.1 0.5-4.2 0.9-6.3 1.1q-0.8 0.1-1.6 0.1-0.7 0.1-1.5 0.1c-6.8 0.3-13.7-0.7-20.1-2.9-5.9-1.9-11.5-4.8-16.4-8.6q-0.2-0.2-0.4-0.3-0.7-0.6-1.5-1.2c-11.7-10.1-19.2-25-19.2-41.7q0-0.3 0-0.6v-63.1q0 0.1 0 0.1c0-11.1 0-22.4 0-33.1 2.3-29.7 27.1-49.5 53.4-50.4v-29.2c-26.7 0.6-52.1 14.2-67.6 36-9 12.8-14.6 28.3-15 45.8l-0.1 0.1v2.2 92.1 2.2c0.5 18.2 6.5 34.3 16.1 47.3 11.9 16.3 29.4 28.1 49.7 32.6 5.9 1.3 12 2.1 18.3 2.1q2.8-0.1 5.6-0.2 1.2-0.1 2.4-0.2 0.6-0.1 1.1-0.2 1-0.1 2-0.2c15.1-2 30.2-8.3 43.6-19.9 0 0 21.9-18.1 25.9-51.6-2.9-0.8-5.9-1.4-8.9-1.8z"/>
			<path id="&lt;Path&gt;" class="s1" d="m209.7 185.5c-12.7-11-27-17.3-41.3-19.6q-2.2-0.4-4.3-0.6-0.6-0.1-1.1-0.1-1.3-0.1-2.5-0.2-2.8-0.2-5.6-0.2c-4.9 0-9.7 0.4-14.3 1.2-22 3.8-41 16.1-53.6 33.4-7.8 10.4-13.2 22.9-15.2 36.7 6.4 2.2 13.3 3.2 20.1 2.9q0.8 0 1.5-0.1 0.8 0 1.6-0.1c2.1-0.2 4.2-0.6 6.3-1.1 2.5-12.1 9-22.8 18-30.5q0.8-0.7 1.5-1.3 0.2-0.1 0.4-0.2c6.4-4.9 13.7-8.3 21.5-10.2 4.9-1.1 10-1.6 15.1-1.4q0.7 0.1 1.5 0.1 0.7 0.1 1.5 0.1c3 0.4 6 1 8.9 1.8q3 0.8 5.9 2 0.5 0.2 0.9 0.4 0.8 0.3 1.6 0.7c6.1 2.9 11.8 7 17 12.6 2.8 3 5.1 6.3 7.1 9.5 6.3-2.2 12.7-3.7 19.1-4.4q0.5-0.1 1.1-0.1 1.2-0.1 2.4-0.2 2.8-0.2 5.6-0.2c-7.8-20.2-20.7-30.9-20.7-30.9z"/>
			<path id="&lt;Path&gt;" class="s0" d="m314.5 298.3c-0.5-18.2-6.5-34.3-16.1-47.3-15.3-21-40-34.6-68-34.6q0 0 0 0-2.8 0-5.6 0.2-1.2 0.1-2.4 0.2-0.6 0-1.1 0.1c-6.4 0.7-12.8 2.2-19.1 4.4-9.2 3.4-18.2 8.6-26.5 15.8 0 0-26.5 21.9-26.5 62.1q0 0.3 0 0.7 0 0.3 0 0.5 0 1.4 0.1 2.9 2.8 0.3 5.6 0.3c7.4 0 14.4-1.5 20.8-4.1 0.1-6.8 1.4-13.2 3.8-19.1q0.5-1.4 1.1-2.7 0-0.1 0-0.1c2.4-5 5.5-9.7 9.7-14.2 5.1-5.6 10.8-9.7 16.9-12.6q0.8-0.4 1.6-0.7 0.4-0.2 0.9-0.4 0 0 0 0c4.7-1.9 9.6-3.2 14.8-3.7q0.8-0.1 1.6-0.2 0.7 0 1.5-0.1c2.8-0.1 5.7 0 8.5 0.3 10.1 1.2 19.9 5.1 28 11.3q0.2 0.1 0.4 0.2 0.8 0.7 1.5 1.3c11.7 10 19.2 24.9 19.2 41.6q0 0.4 0 0.7v63q0 0 0 0c0 11.1 0 22.3 0 33.1-2.3 29.7-27.1 49.4-53.3 50.3v29.2c26.6-0.6 52.1-14.1 67.5-36 9-12.7 14.6-28.3 15.1-45.8v-2.2-92.2-2.2z"/>
			<path id="&lt;Path&gt;" class="s1" d="m236.1 247.6q0-0.8 0-1.6c-2.8-0.3-5.7-0.4-8.5-0.3q-0.8 0.1-1.5 0.1-0.8 0.1-1.6 0.2c-5.2 0.5-10.1 1.8-14.8 3.7q0 0 0 0-0.1 0.7-0.1 1.4 0 0.4 0 0.9-0.1 0.7-0.1 1.4c-1.3 13.5-7.6 26.4-17.5 35.7-4.8 4.4-10.3 7.9-16.3 10.4-6.4 2.6-13.4 4.1-20.8 4.1q-2.8 0-5.6-0.3c-13.7-1.4-25.9-7.8-34.7-17.4v0.2q0-0.1-0.1-0.1v36.6c12.9 7.1 26.4 10.2 39.3 10.2q0.6 0 1.1 0 0.2 0 0.4 0c9.9 0 19.3-1.8 27.9-5 31.5-11.7 52.9-42.6 52.9-79q0-0.2 0-0.5 0-0.4 0-0.7z"/>
		</g>
	</g>
	<g id="Layer 2">
	</g>
</svg>